<?xml version="1.0" encoding="utf-8"?>
<!-- Generator: Adobe Illustrator 17.1.0, SVG Export Plug-In . SVG Version: 6.00 Build 0)  -->
<!DOCTYPE svg PUBLIC "-//W3C//DTD SVG 1.1//EN" "http://www.w3.org/Graphics/SVG/1.1/DTD/svg11.dtd">
<svg version="1.1" id="Layer_1" xmlns="http://www.w3.org/2000/svg" xmlns:xlink="http://www.w3.org/1999/xlink" x="0px" y="0px"
	 viewBox="0 357 300 100" enable-background="new 0 357 300 100" xml:space="preserve">
<g id="svg-wordmark">
	<g id="svg-wordmark--mark">
		<path fill="#FFFFFF" d="M71.9,447.7c-7.2,4.2-19.5,6.7-30.1,6.7C12.5,454.4,0,438.8,0,410.9c0-24.8,15-43.2,44.6-43.2
			c8.9,0,20.1,2.5,27,6.7v26.7l-17.8-1.4l-1.7-11.4c-0.3-1.4-0.6-1.9-1.7-2.2c-1.4-0.3-4.2-0.6-6.1-0.6c-11.1,0-18.4,7.8-18.4,25.1
			c0,17.8,6.7,25.6,17.5,25.6c2.2,0,5.3-0.3,7-0.6c1.7-0.3,1.9-0.6,2.5-2.8l1.7-11.1h17.3L71.9,447.7L71.9,447.7z"/>
		<path fill="#FFFFFF" d="M117.5,453v-39.3c0-3.3-0.3-5-2.8-5c-1.7,0-3.6,0.6-5.6,1.4v27.6c0,1.9,0.3,2.2,1.7,2.5l3.9,0.6v12H78.3
			v-12l4.7-0.8c1.7-0.3,1.9-0.6,1.9-2.2v-54.9c0-1.4-0.3-1.9-1.4-2.5l-5.8-2.2l1.7-12.5h29.8v31.2l0.6,0.3c4.2-4.5,9.5-6.4,15.6-6.4
			c11.4,0,16.7,6.1,16.7,19.5v27.9c0,1.9,0,1.9,1.9,2.2l5,0.8v12H117.5L117.5,453z"/>
		<path fill="#FFFFFF" d="M155.2,453v-12l4.2-0.8c1.7-0.3,1.9-0.6,1.9-2.2v-55.2c0-1.4-0.3-1.9-1.4-2.5L154,378l1.7-12.5h30.1v72.1
			c0,1.9,0,1.9,1.9,2.2l4.5,0.8v12h-37V453z"/>
		<path fill="#FFFFFF" d="M193.9,422.3c0-19.2,10.6-31.8,33.4-31.8c23.1,0,32,12.8,32,30.9c0,19.8-10.3,32.6-33.1,32.6
			C203.3,454.4,193.9,442.1,193.9,422.3z M233.7,422c0-12.3-3.1-15-6.7-15c-3.9,0-7.5,2.5-7.5,15c0,12.8,3.1,15.9,7.2,15.9
			C230.4,438.2,233.7,435.1,233.7,422z"/>
		<path fill="#FFFFFF" d="M263.2,453v-12l4.2-0.8c1.7-0.3,1.9-0.6,1.9-2.2v-29c0-1.4-0.3-1.9-1.4-2.5l-5.8-2.2l1.7-12.5h30.1v46
			c0,1.9,0,1.9,1.9,2.2l4.2,0.8v12h-36.8V453z M279.9,386.4c-8.6,0-13.6-5-13.6-13.6c0-8.4,5-13.1,13.6-13.1
			c8.6,0,13.6,4.7,13.6,13.1C293.3,381.4,288.6,386.4,279.9,386.4z"/>
	</g>
</g>
</svg>
